<?xml version="1.0" encoding="utf-8"?>
<!-- Generator: Adobe Illustrator 21.0.2, SVG Export Plug-In . SVG Version: 6.00 Build 0)  -->
<svg version="1.1" id="Слой_1" xmlns="http://www.w3.org/2000/svg" xmlns:xlink="http://www.w3.org/1999/xlink" x="0px" y="0px"
	 viewBox="0 0 400 400" style="enable-background:new 0 0 400 400;" xml:space="preserve">
<style type="text/css">
	.st0{fill:#444444;}
</style>
<path class="st0" d="M365.7,111c-1.2-1.1-2.5-2-3.8-2.8c-3.6-8.4-2.7-16.8-2.7-16.8c-4.4,3.2-7.6,10.1-9.1,13.9
	c-6.1-1.6-41.9-7.8-89.2,43.9c0,0,8.6-4.1,18.7-3.6c-10.2,3.5-21.9,5.8-35,5.8c-12.8,0-16.5-2.9-43.9-5.3
	c-9.2-0.8-23.5,0.9-34.7,7.4c-4.8-6.5-20.7-13.7-36.1,1.6c-9.8,9.7-20.8,18.7-31.9,25.8c-6.8,2.4-15.3,4.4-21.7,3
	c-8-1.7-14.4-15.1-20.5-21.9c-1.6-1.7-8-4.3-8.1-5.6c-0.1-0.6,0-1.1,0.3-1.5c7.4-0.8,14.2-5.6,12.5-16.8c-0.3-2-0.8-3.9-1.3-5.7
	l4.6-0.5c1.1,0,2.1-0.9,2.1-2.1c0-1.1-0.9-2.1-2.1-2.1h-4.4c-2.5-3.6-9.4-8.5-13.5-8.5c-8.1,0-16.6,4.3-16.6,14.2
	c0,4.1,1.5,8.5,3.8,12.3c0.7,1.7,1.7,4.4,0.7,5.6c-3.8,4.5-27,15.6-24.9,62.8c0.4,8.5-7.4,4.7-8.6,12.1c-2.4,13.9,10,14,44.8,14.6
	c-5.6,7.3-8.9,16.4-8.9,26.2c0,23.9,19.4,43.3,43.3,43.3c23.9,0,43.3-19.4,43.3-43.3c0-5.1-0.9-9.9-2.5-14.4
	c2.2-1.9,3.8-3.2,4.3-3.6c1.9-1.3,30.8-19.1,45.4-28.1c-5-6.9-9.4-16.7-9.7-19.5c0,0,5.6,9.2,18.2,14.6c1.1,1.1,6.7,7.5,2.5,18.7
	c-4.7,12.4-10.6,8.4-4.9,17.3c5.8,8.8,30.6,34.9,28.8,41.5c-1.8,6.7,8.3,18,8.3,18c14.4-24.1-15.4-51.2-20-58.8
	c-4.6-7.7,5.5-20.4,5.5-20.4c17.1-26.9,10.3-54.6,10.3-54.6c7.7,12.7,3.8,29.4,3.8,29.4c5.3,5.5,21.8,10.9,35.9,15.3
	c6.5,6.8,15.5,15.6,22.2,19.4c11.7,6.7,20.4,14.1,19.1,17.4c-1.3,3.3-20.8,9.9-23.4,9.7c-2.6-0.2-11.3-4.7-11.3-4.7
	s-13.4-10.9-14.2-10.9c-9.8-0.4-15.4,3.5-15.4,3.5l1.5,1.1c5.3,3.1,37.6,21.9,37.6,21.9s28-4.1,39.4-14.2c6-5.3-1.9-15.7-6.7-24.4
	c-1.9-3.4-4.1-7.3-6.1-10.8c4.8-1.7,11-4.1,16.6-6.4c16.2,2.5,35.4,5.7,36.8,6.6c2.4,1.5,3.3,18.7-2.1,38.5l-14.4,10.7l9.5,15.2
	c0,0,13.8-12.8,17-37.8c3.6-28.1,2.2-36,2.2-36s-15.9-9.8-27.8-16.9c2.7-10.1,3.3-21.1,3.3-21.1c10.1-17.5,20.3-42.1,20.3-42.1
	c5.2,13.8,18.9,12,21.2,15.1c2.3,3.1,3.4,12,12,9s13.8-13.4,13.8-13.4L365.7,111z M48.2,197.4l-0.3-12.7c0,0,6.7,7.9,14.8,11.9
	C57.6,197.8,52.7,198.1,48.2,197.4z M145,216c-3.2,4-18.2,7.8-26.7,21.8c-1,1.7-2.1,3.2-3.3,4.6c-1.7-2.4-3.5-4.6-5.6-6.5l38.5-28.3
	C147.3,212.4,146.6,214,145,216z M149.3,180.4c-0.3,5.8-0.5,10.6-0.7,14.5l-47.4,34.9c-0.6-0.4-1.3-0.7-2-1.1
	c0.3-9.4,3.3-27.5,21.3-36c25-11.8,13.9-41.2,37.7-34c0.2,0.1,0.4,0.1,0.6,0.2C153.5,164.1,149.8,171.1,149.3,180.4z"/>
</svg>
