<?xml version="1.0" encoding="utf-8"?>
<!-- Generator: Adobe Illustrator 21.0.2, SVG Export Plug-In . SVG Version: 6.00 Build 0)  -->
<svg version="1.1" id="Слой_1" xmlns="http://www.w3.org/2000/svg" xmlns:xlink="http://www.w3.org/1999/xlink" x="0px" y="0px"
	 viewBox="0 0 400 400" style="enable-background:new 0 0 400 400;" xml:space="preserve">
<style type="text/css">
	.st0{fill:#444444;}
</style>
<path class="st0" d="M394.8,146.9c0,0-15.2-17.3-20.3-26.9c-3.4-6.4-10.9-17-22.2-19c-8.2-6.8-17.1-6.4-17.1-6.4s3,2.4,3.5,6.4
	c-10.4-0.2-24,5-32.2,8.9c5.2-5.4,7.6-14.6,7.8-20.8c0.2-8.4-6.7-17-20.3-13.7c-8.7,2.1-11.8,11.6-12.3,16.8
	c-0.5,4.6,2.3,9.3,2.3,9.3c-0.5,2.6-2.3-7.9-17.2-9.5c-14.9-1.6-67.9,1.9-72.2,35.2c-2.1,16.6,30.3,21.7,49.6,14.7
	c0,0-44.9,14.4-44,35.4c0.1,3.1,2.3,6.2,5.6,9c-4.1-2.2-7.3-5.3-8.7-9.9c-3-10.2,22-27.3,22-27.3l-22.3-6.2c0,0-77.1-13.3-97.5,8.2
	c-17.2,1.8-41.1,8.5-53.4,30.6C25.4,218.4,0,194.3,0,194.3s18.9,43.9,52.3,24c16-9.5,10.4-26.8,33.6-47.5
	c-8.9,19.3-5.6,41,35.6,58.9c0,0,15.6,5.2,14.9,17.8c-0.7,12.6-7,29.6,3.3,32.8c10.2,3.3,49.1,20,51.7,26.5
	c2.6,6.5,5.9,14.4,14.3,14.6c6.3,0.2,18.9,1.5,24.7,2.2c-8.3-7.8-17.2-15.3-36-31.6c-8.4-3.3-26-10.3-28.3-12.5
	c-3-2.8-8.8-3.7-7.9-18.6c0.9-14.9,4.8-31.7,2.6-50.1c-2.2-18.4-8.8-23.9-8.8-23.9s15.9,11.6,12.7,44.9c-2.1,21.5-5.2,34.3,5.2,42.2
	c10.3,7.9,23.7,12.6,23.7,12.6s-15.2-9.6-19.6-25.1C168,240.9,171,226,171,226s32.1,21.9,55.8,20.5c0,0,17.9,20.7,28.9,26.9
	c11,6.3,19.2,13.3,18,16.4c-1.2,3.1-19.6,9.3-22,9.2c-2.4-0.2-10.7-4.5-10.7-4.5s-12.6-10.3-13.4-10.3c-9.2-0.3-14.5,3.3-14.5,3.3
	l1.4,1.1c5,2.9,35.5,20.7,35.5,20.7s26.4-3.8,37.2-13.4c5.6-5-1.7-14.8-6.3-23c-4.5-8.2-11-19.4-11-19.4s53.5,8,55.7,9.4
	c2.3,1.5,3.1,17.6-1.9,36.3L310,309.4l9,14.3c0,0,13-12,16.1-35.6c3.4-26.6,2-34,2-34s-27.9-17.1-36-21.6
	c-9.1,9.4-17.6,14.4-17.6,14.4c13.2-13.6,18.9-33.3,18.9-33.3l0.1-0.1c1.9-6.9,4.3-14.7,6.6-21.9c5.6-17.5,26.2-41.7,31.1-42.6
	c4.9-0.9,10.7,7.5,22.4,8.4c11.6,0.9,18.2,7.5,18.6,12.1c0,0,16.1,4,18.4-7.2C401.8,151.1,394.8,146.9,394.8,146.9z M300.5,133.7
	c-11,14.6-18.6,19.8-24.3,18.8c-10.3-1.8-21.3-27.1-21.3-27.1s11,21.5,21.3,23.7c8.1,1.7,12.1-8.4,31.4-26.3c5.3-4.9,10-4.6,10-4.6
	C311,120.8,305.1,127.7,300.5,133.7z"/>
</svg>
