<?xml version="1.0" encoding="utf-8"?>
<!-- Generator: Adobe Illustrator 21.0.2, SVG Export Plug-In . SVG Version: 6.00 Build 0)  -->
<svg version="1.1" id="Слой_1" xmlns="http://www.w3.org/2000/svg" xmlns:xlink="http://www.w3.org/1999/xlink" x="0px" y="0px"
	 viewBox="0 0 400 400" style="enable-background:new 0 0 400 400;" xml:space="preserve">
<style type="text/css">
	.st0{fill:#444444;}
</style>
<path class="st0" d="M373.8,126.4c-3.6-2-5.8-4-13-7.2c-7.2-3.1-16.6-1.1-23.1-0.7c-6.5,0.4-19.1-4.5-19.1-4.5
	c-0.2,9.9,6.5,16.1,6.5,16.1c-10.1,3.1-22.3,17.8-32.1,22.5c-9.8,4.7-35.7-4-67.3-15.1c-31.6-11.1-54.5-7.1-80.4,7.4
	c-5.8,3.2-10.1,7.1-13.4,11c-11.4,5-22.4,12.2-33,21.7c-15.3,13.9-30.8,20.5-46,19.6C31.6,196,15.5,180,9.6,173.1
	c-2-2.3-5.4-2.5-7.7-0.6s-2.5,5.4-0.6,7.7c8.5,9.8,26.4,26.5,51.1,27.9c1.2,0.1,2.3,0.1,3.5,0.1c17.1,0,34.1-7.6,50.5-22.5
	c5.5-5,11.2-9.3,17-12.9c-1.9,7.3-1.4,12.7-1.4,12.7s-3.7,30.6,27.9,30.9c31.6,0.3,28.9,6.4,33.6,20.2c1.8,5.2,1.8,10.5,1.9,15.5
	c0,0-29.2,22.5-33.6,23.2c-4.4,0.7-35.2,7.1-30.1,20.5c0,0,11.6,0,27.4-10.1c12.1-7.7,25.5-10.1,40.2-18.5c1.3,1.3,2.9,2.5,5.2,3.3
	c12.8,4.7,33.7,5.9,48.4,10.9c2.9,1,5.9,1.3,8.9,1.1c5.2-0.3,11.9-1.4,10.7-5c-2-5.7-9.4-7.2-21.9-7.4c-18.9-0.3-23-2-28.2-7.1
	c-4.5-4.5-10-10.1-10-30.1l0,0l0,0c-0.2-4.8-0.7-18,0.1-29.5c0.9-14.3-25.1-33.2-25.1-33.2c29.1,15.9,28,28.3,30,34.1
	c2,5.8,13.9,9.6,13.9,9.6l-14.9,16.5c0.1,6.4,0.7,18.2,4.2,26.4c1.3-6.2,7.4-9.7,17.2-14.3c10.8-5,53.1-17.5,61.2-28.6
	c8.1-11.1,41.3-51.6,59-56.5c17.7-4.9,13-4.4,19.4-4.4h27.9c2.6,0,4.8-2.1,4.8-4.8v-5.1C400,140.6,373.8,126.4,373.8,126.4z"/>
</svg>
